<?xml version="1.0" encoding="UTF-8" standalone="no"?>
<!DOCTYPE svg PUBLIC "-//W3C//DTD SVG 1.1//EN"
 "http://www.w3.org/Graphics/SVG/1.1/DTD/svg11.dtd">
<!-- Generated by graphviz version 9.0.0 (20230911.1827)
 -->
<!-- Pages: 1 -->
<svg width="819pt" height="484pt"
 viewBox="0.00 0.00 819.10 484.12" xmlns="http://www.w3.org/2000/svg" xmlns:xlink="http://www.w3.org/1999/xlink">
<g id="graph0" class="graph" transform="scale(1 1) rotate(0) translate(4 480.12)">
<polygon fill="white" stroke="none" points="-4,4 -4,-480.12 815.1,-480.12 815.1,4 -4,4"/>
<text text-anchor="middle" x="405.55" y="-5.95" font-family="FiraSans-SemiBoldItalic" font-size="24.00">TITLE</text>
<g id="clust1" class="cluster">
<title>cluster_armA</title>
<polygon fill="none" stroke="white" points="362.1,-299.12 362.1,-468.12 803.1,-468.12 803.1,-299.12 362.1,-299.12"/>
<text text-anchor="middle" x="582.6" y="-441.32" font-family="FiraSans-SemiBoldItalic" font-size="24.00" fill="#2d696a">Intervention Arm</text>
</g>
<g id="clust2" class="cluster">
<title>cluster_armB</title>
<polygon fill="none" stroke="white" points="362.1,-109.12 362.1,-275.12 803.1,-275.12 803.1,-109.12 362.1,-109.12"/>
<text text-anchor="middle" x="582.6" y="-248.32" font-family="FiraSans-SemiBoldItalic" font-size="24.00" fill="#2d696a">Control Arm</text>
</g>
<!-- background -->
<g id="node1" class="node">
<title>background</title>
<polygon fill="none" stroke="white" stroke-width="1.5" points="1.12,-33.25 1.12,-111 236.88,-111 236.88,-33.25 1.12,-33.25"/>
<text text-anchor="middle" x="119" y="-88" font-family="Arial" font-size="20.00">Stratification by </text>
<text text-anchor="middle" x="119" y="-64.75" font-family="Arial" font-size="20.00">nodal status, tumor size, </text>
<text text-anchor="middle" x="119" y="-41.5" font-family="Arial" font-size="20.00">carboplatin schedule</text>
</g>
<!-- pupulation -->
<g id="node2" class="node">
<title>pupulation</title>
<polygon fill="#eefffa" stroke="#2d696a" stroke-width="1.5" points="0,-184.12 0,-358.12 238,-358.12 238,-184.12 0,-184.12"/>
<text text-anchor="middle" x="119" y="-337.02" font-family="Arial" font-size="18.00">primary stage I&#45;IIA/B TNBC</text>
<polyline fill="none" stroke="#2d696a" stroke-width="1.5" points="0,-329.12 238,-329.12"/>
<text text-anchor="middle" x="119" y="-308.02" font-family="Arial" font-size="18.00">aged ≥18 yr</text>
<polyline fill="none" stroke="#2d696a" stroke-width="1.5" points="0,-300.12 238,-300.12"/>
<text text-anchor="middle" x="119" y="-279.02" font-family="Arial" font-size="18.00">T1cN1&#45;2 or T2&#45;4N0&#45;2 TNBC</text>
<polyline fill="none" stroke="#2d696a" stroke-width="1.5" points="0,-271.12 238,-271.12"/>
<text text-anchor="middle" x="119" y="-250.03" font-family="Arial" font-size="18.00">ECOG PS 0/1</text>
<polyline fill="none" stroke="#2d696a" stroke-width="1.5" points="0,-242.12 238,-242.12"/>
<text text-anchor="middle" x="119" y="-221.03" font-family="Arial" font-size="18.00">available for PD&#45;L1 testing</text>
<polyline fill="none" stroke="#2d696a" stroke-width="1.5" points="0,-213.12 238,-213.12"/>
<text text-anchor="middle" x="119" y="-192.03" font-family="Arial" font-size="18.00">(N = 1174)</text>
</g>
<!-- method -->
<g id="node3" class="node">
<title>method</title>
<ellipse fill="#2d696a" stroke="#6c9a77" stroke-width="5" cx="304.05" cy="-271.12" rx="30.05" ry="30.05"/>
<text text-anchor="middle" x="304.05" y="-275.07" font-family="Arial" font-size="14.00" fill="#ffffff">🎲</text>
<text text-anchor="middle" x="304.05" y="-256.32" font-family="Arial" font-size="14.00" fill="#ffffff">2:1</text>
</g>
<!-- pupulation&#45;&gt;method -->
<g id="edge3" class="edge">
<title>pupulation&#45;&gt;method</title>
<path fill="none" stroke="black" stroke-width="2" d="M238.29,-271.12C238.29,-271.12 258.79,-271.12 258.79,-271.12"/>
<polygon fill="black" stroke="black" stroke-width="2" points="258.79,-274.63 268.79,-271.13 258.79,-267.63 258.79,-274.63"/>
</g>
<!-- intervention -->
<g id="node4" class="node">
<title>intervention</title>
<defs>
<linearGradient id="node4_l_0" gradientUnits="userSpaceOnUse" x1="370.1" y1="-367.12" x2="680.85" y2="-367.12" >
<stop offset="0" style="stop-color:#2d696a;stop-opacity:1.;"/>
<stop offset="1" style="stop-color:#6c9a77;stop-opacity:1.;"/>
</linearGradient>
</defs>
<polygon fill="url(#node4_l_0)" stroke="white" stroke-width="1.5" points="370.1,-307.62 370.1,-426.62 680.85,-426.62 680.85,-307.62 370.1,-307.62"/>
<text text-anchor="middle" x="525.48" y="-405.52" font-family="Arial" font-size="18.00" fill="#ffffff">💊 Pembrolizumab 200 mg IV</text>
<polyline fill="none" stroke="white" stroke-width="1.5" points="370.1,-394.62 680.85,-394.62"/>
<text text-anchor="middle" x="525.48" y="-373.52" font-family="Arial" font-size="18.00" fill="#ffffff">Carboplatin + Paclitaxel</text>
<polyline fill="none" stroke="white" stroke-width="1.5" points="370.1,-365.62 680.85,-365.62"/>
<text text-anchor="middle" x="525.48" y="-344.52" font-family="Arial" font-size="18.00" fill="#ffffff">Doxo/Epirubicin + Cyclophosphamide</text>
<polyline fill="none" stroke="white" stroke-width="1.5" points="370.1,-336.62 680.85,-336.62"/>
<text text-anchor="middle" x="434.23" y="-315.52" font-family="Arial" font-size="18.00" fill="#ffffff">Q3W</text>
<polyline fill="none" stroke="white" stroke-width="1.5" points="498.35,-307.62 498.35,-336.62"/>
<text text-anchor="middle" x="589.48" y="-315.52" font-family="Arial" font-size="18.00" fill="#ffffff">4 + 4 cycles</text>
</g>
<!-- method&#45;&gt;intervention -->
<g id="edge4" class="edge">
<title>method&#45;&gt;intervention</title>
<path fill="none" stroke="black" stroke-width="2" d="M304.1,-303.45C304.1,-318.39 304.1,-332.88 304.1,-332.88 304.1,-332.88 356.6,-332.88 356.6,-332.88"/>
<polygon fill="black" stroke="black" stroke-width="2" points="349.08,-336.38 359.08,-332.88 349.08,-329.38 349.08,-336.38"/>
</g>
<!-- control -->
<g id="node6" class="node">
<title>control</title>
<polygon fill="white" stroke="#2d696a" stroke-width="1.5" points="370.1,-118.12 370.1,-234.12 680.85,-234.12 680.85,-118.12 370.1,-118.12"/>
<text text-anchor="middle" x="525.48" y="-213.03" font-family="Arial" font-size="18.00" fill="#2d696a">CONTROL: Placebo</text>
<polyline fill="none" stroke="#2d696a" stroke-width="1.5" points="370.1,-205.12 680.85,-205.12"/>
<text text-anchor="middle" x="525.48" y="-184.03" font-family="Arial" font-size="18.00" fill="#2d696a">Carboplatin + Paclitaxel</text>
<polyline fill="none" stroke="#2d696a" stroke-width="1.5" points="370.1,-176.12 680.85,-176.12"/>
<text text-anchor="middle" x="525.48" y="-155.03" font-family="Arial" font-size="18.00" fill="#2d696a">Doxo/Epirubicin + Cyclophosphamide</text>
<polyline fill="none" stroke="#2d696a" stroke-width="1.5" points="370.1,-147.12 680.85,-147.12"/>
<text text-anchor="middle" x="434.23" y="-126.03" font-family="Arial" font-size="18.00" fill="#2d696a">Q3W</text>
<polyline fill="none" stroke="#2d696a" stroke-width="1.5" points="498.35,-118.12 498.35,-147.12"/>
<text text-anchor="middle" x="589.48" y="-126.03" font-family="Arial" font-size="18.00" fill="#2d696a">4 + 4 cycles</text>
</g>
<!-- method&#45;&gt;control -->
<g id="edge5" class="edge">
<title>method&#45;&gt;control</title>
<path fill="none" stroke="black" stroke-width="2" d="M304.1,-238.67C304.1,-223.67 304.1,-209.12 304.1,-209.12 304.1,-209.12 356.6,-209.12 356.6,-209.12"/>
<polygon fill="black" stroke="black" stroke-width="2" points="349.08,-212.63 359.08,-209.13 349.08,-205.63 349.08,-212.63"/>
</g>
<!-- surgery1 -->
<g id="node5" class="node">
<title>surgery1</title>
<defs>
<linearGradient id="node5_l_1" gradientUnits="userSpaceOnUse" x1="716.85" y1="-367.12" x2="795.1" y2="-367.12" >
<stop offset="0" style="stop-color:#2d696a;stop-opacity:1.;"/>
<stop offset="1" style="stop-color:#6c9a77;stop-opacity:1.;"/>
</linearGradient>
</defs>
<polygon fill="url(#node5_l_1)" stroke="white" stroke-width="1.5" points="716.85,-349.12 716.85,-385.12 795.1,-385.12 795.1,-349.12 716.85,-349.12"/>
<text text-anchor="middle" x="755.98" y="-360.52" font-family="Arial" font-size="18.00" fill="#ffffff">Surgery</text>
</g>
<!-- intervention&#45;&gt;surgery1 -->
<g id="edge1" class="edge">
<title>intervention&#45;&gt;surgery1</title>
<path fill="none" stroke="black" stroke-width="2" d="M681.14,-367.12C681.14,-367.12 703.42,-367.12 703.42,-367.12"/>
<polygon fill="black" stroke="black" stroke-width="2" points="703.42,-370.63 713.42,-367.13 703.42,-363.63 703.42,-370.63"/>
</g>
<!-- surgery2 -->
<g id="node7" class="node">
<title>surgery2</title>
<polygon fill="white" stroke="#2d696a" stroke-width="1.5" points="716.85,-158.12 716.85,-194.12 795.1,-194.12 795.1,-158.12 716.85,-158.12"/>
<text text-anchor="middle" x="755.98" y="-169.53" font-family="Arial" font-size="18.00" fill="#2d696a">Surgery</text>
</g>
<!-- control&#45;&gt;surgery2 -->
<g id="edge2" class="edge">
<title>control&#45;&gt;surgery2</title>
<path fill="none" stroke="black" stroke-width="2" d="M681.14,-176.12C681.14,-176.12 703.42,-176.12 703.42,-176.12"/>
<polygon fill="black" stroke="black" stroke-width="2" points="703.42,-179.63 713.42,-176.13 703.42,-172.63 703.42,-179.63"/>
</g>
</g>
</svg>
