<?xml version="1.0" encoding="UTF-8" standalone="no"?>
<!DOCTYPE svg PUBLIC "-//W3C//DTD SVG 1.1//EN"
 "http://www.w3.org/Graphics/SVG/1.1/DTD/svg11.dtd">
<!-- Generated by graphviz version 9.0.0 (20230911.1827)
 -->
<!-- Pages: 1 -->
<svg width="1166pt" height="474pt"
 viewBox="0.00 0.00 1165.85 474.12" xmlns="http://www.w3.org/2000/svg" xmlns:xlink="http://www.w3.org/1999/xlink">
<g id="graph0" class="graph" transform="scale(1 1) rotate(0) translate(4 470.12)">
<polygon fill="white" stroke="none" points="-4,4 -4,-470.12 1161.85,-470.12 1161.85,4 -4,4"/>
<text text-anchor="middle" x="578.93" y="-5.95" font-family="FiraSans-SemiBoldItalic" font-size="24.00">TITLE</text>
<g id="clust1" class="cluster">
<title>cluster_armA</title>
<polygon fill="none" stroke="white" points="362.1,-289.12 362.1,-458.12 919.35,-458.12 919.35,-289.12 362.1,-289.12"/>
<text text-anchor="middle" x="640.73" y="-431.32" font-family="FiraSans-SemiBoldItalic" font-size="24.00" fill="#2d696a">Intervention Arm</text>
</g>
<g id="clust2" class="cluster">
<title>cluster_armB</title>
<polygon fill="none" stroke="white" points="708.85,-115.12 708.85,-281.12 1149.85,-281.12 1149.85,-115.12 708.85,-115.12"/>
<text text-anchor="middle" x="929.35" y="-254.32" font-family="FiraSans-SemiBoldItalic" font-size="24.00" fill="#2d696a">Control Arm</text>
</g>
<!-- background -->
<g id="node1" class="node">
<title>background</title>
<polygon fill="none" stroke="white" stroke-width="1.5" points="1.12,-33.25 1.12,-111 236.88,-111 236.88,-33.25 1.12,-33.25"/>
<text text-anchor="middle" x="119" y="-88" font-family="Arial" font-size="20.00">Stratification by </text>
<text text-anchor="middle" x="119" y="-64.75" font-family="Arial" font-size="20.00">nodal status, tumor size, </text>
<text text-anchor="middle" x="119" y="-41.5" font-family="Arial" font-size="20.00">carboplatin schedule</text>
</g>
<!-- pupulation -->
<g id="node2" class="node">
<title>pupulation</title>
<polygon fill="#eefffa" stroke="#2d696a" stroke-width="1.5" points="0,-184.12 0,-358.12 238,-358.12 238,-184.12 0,-184.12"/>
<text text-anchor="middle" x="119" y="-337.02" font-family="Arial" font-size="18.00">primary stage I&#45;IIA/B TNBC</text>
<polyline fill="none" stroke="#2d696a" stroke-width="1.5" points="0,-329.12 238,-329.12"/>
<text text-anchor="middle" x="119" y="-308.02" font-family="Arial" font-size="18.00">aged ≥18 yr</text>
<polyline fill="none" stroke="#2d696a" stroke-width="1.5" points="0,-300.12 238,-300.12"/>
<text text-anchor="middle" x="119" y="-279.02" font-family="Arial" font-size="18.00">T1cN1&#45;2 or T2&#45;4N0&#45;2 TNBC</text>
<polyline fill="none" stroke="#2d696a" stroke-width="1.5" points="0,-271.12 238,-271.12"/>
<text text-anchor="middle" x="119" y="-250.03" font-family="Arial" font-size="18.00">ECOG PS 0/1</text>
<polyline fill="none" stroke="#2d696a" stroke-width="1.5" points="0,-242.12 238,-242.12"/>
<text text-anchor="middle" x="119" y="-221.03" font-family="Arial" font-size="18.00">available for PD&#45;L1 testing</text>
<polyline fill="none" stroke="#2d696a" stroke-width="1.5" points="0,-213.12 238,-213.12"/>
<text text-anchor="middle" x="119" y="-192.03" font-family="Arial" font-size="18.00">(N = 1174)</text>
</g>
<!-- method -->
<g id="node3" class="node">
<title>method</title>
<ellipse fill="#2d696a" stroke="#6c9a77" stroke-width="5" cx="304.05" cy="-271.12" rx="30.05" ry="30.05"/>
<text text-anchor="middle" x="304.05" y="-275.07" font-family="Arial" font-size="14.00" fill="#ffffff">🎲</text>
<text text-anchor="middle" x="304.05" y="-256.32" font-family="Arial" font-size="14.00" fill="#ffffff">2:1</text>
</g>
<!-- pupulation&#45;&gt;method -->
<g id="edge3" class="edge">
<title>pupulation&#45;&gt;method</title>
<path fill="none" stroke="black" stroke-width="2" d="M238.29,-271.12C238.29,-271.12 258.79,-271.12 258.79,-271.12"/>
<polygon fill="black" stroke="black" stroke-width="2" points="258.79,-274.63 268.79,-271.13 258.79,-267.63 258.79,-274.63"/>
</g>
<!-- intervention -->
<g id="node4" class="node">
<title>intervention</title>
<defs>
<linearGradient id="node4_l_0" gradientUnits="userSpaceOnUse" x1="370.1" y1="-357.12" x2="680.85" y2="-357.12" >
<stop offset="0" style="stop-color:#2d696a;stop-opacity:1.;"/>
<stop offset="1" style="stop-color:#6c9a77;stop-opacity:1.;"/>
</linearGradient>
</defs>
<polygon fill="url(#node4_l_0)" stroke="white" stroke-width="1.5" points="370.1,-297.62 370.1,-416.62 680.85,-416.62 680.85,-297.62 370.1,-297.62"/>
<text text-anchor="middle" x="525.48" y="-395.52" font-family="Arial" font-size="18.00" fill="#ffffff">💊 Pembrolizumab 200 mg IV</text>
<polyline fill="none" stroke="white" stroke-width="1.5" points="370.1,-384.62 680.85,-384.62"/>
<text text-anchor="middle" x="525.48" y="-363.52" font-family="Arial" font-size="18.00" fill="#ffffff">Carboplatin + Paclitaxel</text>
<polyline fill="none" stroke="white" stroke-width="1.5" points="370.1,-355.62 680.85,-355.62"/>
<text text-anchor="middle" x="525.48" y="-334.52" font-family="Arial" font-size="18.00" fill="#ffffff">Doxo/Epirubicin + Cyclophosphamide</text>
<polyline fill="none" stroke="white" stroke-width="1.5" points="370.1,-326.62 680.85,-326.62"/>
<text text-anchor="middle" x="434.23" y="-305.52" font-family="Arial" font-size="18.00" fill="#ffffff">Q3W</text>
<polyline fill="none" stroke="white" stroke-width="1.5" points="498.35,-297.62 498.35,-326.62"/>
<text text-anchor="middle" x="589.48" y="-305.52" font-family="Arial" font-size="18.00" fill="#ffffff">4 + 4 cycles</text>
</g>
<!-- method&#45;&gt;intervention -->
<g id="edge5" class="edge">
<title>method&#45;&gt;intervention</title>
<path fill="none" stroke="black" stroke-width="2" d="M304.85,-303.61C304.85,-317.2 304.85,-329.9 304.85,-329.9 304.85,-329.9 356.83,-329.9 356.83,-329.9"/>
<polygon fill="black" stroke="black" stroke-width="2" points="356.83,-333.4 366.83,-329.9 356.83,-326.4 356.83,-333.4"/>
</g>
<!-- control -->
<g id="node6" class="node">
<title>control</title>
<polygon fill="white" stroke="#2d696a" stroke-width="1.5" points="716.85,-124.12 716.85,-240.12 1027.6,-240.12 1027.6,-124.12 716.85,-124.12"/>
<text text-anchor="middle" x="872.23" y="-219.03" font-family="Arial" font-size="18.00" fill="#2d696a">CONTROL: Placebo</text>
<polyline fill="none" stroke="#2d696a" stroke-width="1.5" points="716.85,-211.12 1027.6,-211.12"/>
<text text-anchor="middle" x="872.23" y="-190.03" font-family="Arial" font-size="18.00" fill="#2d696a">Carboplatin + Paclitaxel</text>
<polyline fill="none" stroke="#2d696a" stroke-width="1.5" points="716.85,-182.12 1027.6,-182.12"/>
<text text-anchor="middle" x="872.23" y="-161.03" font-family="Arial" font-size="18.00" fill="#2d696a">Doxo/Epirubicin + Cyclophosphamide</text>
<polyline fill="none" stroke="#2d696a" stroke-width="1.5" points="716.85,-153.12 1027.6,-153.12"/>
<text text-anchor="middle" x="780.98" y="-132.03" font-family="Arial" font-size="18.00" fill="#2d696a">Q3W</text>
<polyline fill="none" stroke="#2d696a" stroke-width="1.5" points="845.1,-124.12 845.1,-153.12"/>
<text text-anchor="middle" x="936.23" y="-132.03" font-family="Arial" font-size="18.00" fill="#2d696a">4 + 4 cycles</text>
</g>
<!-- method&#45;&gt;control -->
<g id="edge4" class="edge">
<title>method&#45;&gt;control</title>
<path fill="none" stroke="black" stroke-width="2" d="M304.85,-238.86C304.85,-225.09 304.85,-212.12 304.85,-212.12 304.85,-212.12 703.41,-212.12 703.41,-212.12"/>
<polygon fill="black" stroke="black" stroke-width="2" points="703.41,-215.63 713.41,-212.13 703.41,-208.63 703.41,-215.63"/>
</g>
<!-- surgery1 -->
<g id="node5" class="node">
<title>surgery1</title>
<defs>
<linearGradient id="node5_l_1" gradientUnits="userSpaceOnUse" x1="833.1" y1="-357.12" x2="911.35" y2="-357.12" >
<stop offset="0" style="stop-color:#2d696a;stop-opacity:1.;"/>
<stop offset="1" style="stop-color:#6c9a77;stop-opacity:1.;"/>
</linearGradient>
</defs>
<polygon fill="url(#node5_l_1)" stroke="white" stroke-width="1.5" points="833.1,-339.12 833.1,-375.12 911.35,-375.12 911.35,-339.12 833.1,-339.12"/>
<text text-anchor="middle" x="872.23" y="-350.52" font-family="Arial" font-size="18.00" fill="#ffffff">Surgery</text>
</g>
<!-- intervention&#45;&gt;surgery1 -->
<g id="edge1" class="edge">
<title>intervention&#45;&gt;surgery1</title>
<path fill="none" stroke="black" stroke-width="2" d="M681.1,-357.12C681.1,-357.12 819.85,-357.12 819.85,-357.12"/>
<polygon fill="black" stroke="black" stroke-width="2" points="819.85,-360.63 829.85,-357.13 819.85,-353.63 819.85,-360.63"/>
</g>
<!-- intervention&#45;&gt;control -->
<!-- surgery2 -->
<g id="node7" class="node">
<title>surgery2</title>
<polygon fill="white" stroke="#2d696a" stroke-width="1.5" points="1063.6,-164.12 1063.6,-200.12 1141.85,-200.12 1141.85,-164.12 1063.6,-164.12"/>
<text text-anchor="middle" x="1102.73" y="-175.53" font-family="Arial" font-size="18.00" fill="#2d696a">Surgery</text>
</g>
<!-- control&#45;&gt;surgery2 -->
<g id="edge2" class="edge">
<title>control&#45;&gt;surgery2</title>
<path fill="none" stroke="black" stroke-width="2" d="M1027.89,-182.12C1027.89,-182.12 1050.17,-182.12 1050.17,-182.12"/>
<polygon fill="black" stroke="black" stroke-width="2" points="1050.17,-185.63 1060.17,-182.13 1050.17,-178.63 1050.17,-185.63"/>
</g>
</g>
</svg>
